<?xml version="1.0" standalone="no"?>
<!DOCTYPE svg PUBLIC "-//W3C//DTD SVG 20010904//EN"
 "http://www.w3.org/TR/2001/REC-SVG-20010904/DTD/svg10.dtd">
<svg version="1.0" xmlns="http://www.w3.org/2000/svg"
 width="300.000000pt" height="97.000000pt" viewBox="0 0 300.000000 97.000000"
 preserveAspectRatio="xMidYMid meet">

<g transform="translate(0.000000,97.000000) scale(0.100000,-0.100000)"
fill="#000000" stroke="none">
<path d="M2620 895 c-201 -40 -475 -93 -610 -120 -537 -104 -534 -103 -547
-121 -7 -10 -12 -19 -10 -20 1 -1 56 8 122 21 113 22 216 42 750 146 121 23
303 59 405 79 102 20 186 36 188 35 5 -4 -280 -439 -296 -452 -35 -29 -44 18
-10 54 l21 23 -27 0 c-19 0 -40 -12 -63 -35 -40 -40 -48 -44 -33 -16 18 35 12
51 -19 51 -23 0 -42 -15 -96 -75 -78 -88 -120 -115 -142 -93 -21 22 -6 46 45
68 59 27 82 47 82 76 0 58 -61 40 -159 -46 l-77 -68 4 61 c2 34 9 68 15 75 7
9 6 16 -2 25 -10 9 -16 8 -25 -7 -19 -34 -99 -117 -150 -158 -80 -64 -82 -25
-5 89 35 50 35 53 8 53 -12 0 -31 -12 -42 -27 -83 -108 -163 -167 -192 -143
-23 19 -4 49 43 70 60 27 82 47 82 77 0 54 -81 34 -137 -33 -32 -37 -39 -42
-51 -30 -12 11 -11 18 2 44 20 38 20 52 1 52 -18 0 -35 -31 -35 -64 0 -30 -92
-132 -109 -121 -18 11 -13 28 33 103 43 69 44 72 22 72 -17 0 -37 -19 -77 -72
-55 -73 -119 -125 -119 -96 0 8 20 46 45 84 50 78 52 84 26 84 -11 0 -43 -30
-78 -73 -60 -71 -106 -107 -120 -93 -9 9 28 81 111 214 l65 102 -30 0 c-17 0
-32 -6 -35 -15 -4 -8 -11 -15 -18 -15 -6 0 -181 65 -389 145 -208 80 -382 145
-387 145 -5 0 -42 -51 -83 -114 -72 -109 -76 -113 -117 -120 -85 -14 -130 -56
-116 -110 13 -51 115 -73 191 -42 19 8 35 14 35 12 0 -2 -31 -50 -70 -107 -70
-103 -84 -142 -54 -153 33 -13 57 -5 91 29 40 40 43 41 43 17 0 -37 34 -55 97
-50 67 5 132 33 190 83 50 43 58 44 38 6 -13 -27 -13 -31 1 -46 9 -9 23 -14
31 -11 8 3 18 6 23 6 5 0 23 12 41 27 28 24 31 25 25 6 -15 -48 48 -53 97 -7
33 30 37 30 37 0 0 -46 59 -40 113 12 l29 27 -7 -26 c-14 -57 48 -58 108 -1
l29 27 -7 -26 c-14 -57 49 -61 105 -6 l31 31 -6 -26 c-5 -20 -2 -29 14 -37 30
-16 77 6 124 58 31 35 41 40 53 30 8 -6 14 -27 14 -45 0 -27 5 -36 24 -44 33
-12 81 3 128 40 37 31 38 31 28 6 -7 -19 -5 -29 6 -41 19 -18 17 -18 57 -1 18
8 61 44 97 80 35 36 67 66 71 66 8 0 -5 -63 -20 -103 -14 -36 -45 -51 -65 -32
-19 19 -26 19 -26 0 0 -43 91 -21 166 40 l42 35 -5 -39 c-4 -32 -2 -41 15 -50
49 -26 102 8 216 139 58 66 59 28 2 -60 -25 -39 -46 -73 -46 -75 0 -3 11 -5
23 -5 17 0 34 15 60 53 21 30 48 64 62 77 l25 23 0 -26 c0 -28 17 -37 67 -34
28 2 38 13 100 107 139 211 265 411 262 414 -2 1 -168 -30 -369 -69z m-1636
-127 c204 -78 373 -143 374 -144 6 -4 -49 -94 -57 -94 -4 0 -12 5 -19 12 -9 9
-21 9 -51 -1 -29 -8 -57 -31 -106 -86 -62 -69 -98 -95 -112 -81 -3 3 15 40 40
81 26 42 47 78 47 80 0 3 -10 5 -22 5 -16 0 -33 -15 -56 -49 -45 -65 -106
-124 -126 -119 -17 3 0 38 68 141 18 26 18 27 -2 27 -13 0 -53 -32 -101 -80
-79 -79 -117 -104 -85 -55 22 34 22 89 -1 115 -10 11 -16 21 -14 23 2 1 21 10
42 20 42 19 79 71 75 106 -2 13 -15 33 -29 43 -35 27 -91 15 -138 -28 -29 -26
-40 -30 -54 -22 -18 9 -18 11 -1 29 16 18 16 19 -12 19 -17 0 -35 -5 -40 -10
-8 -8 -19 -8 -38 0 -15 5 -39 10 -52 10 -16 0 -24 5 -22 13 4 15 111 187 117
187 2 0 171 -64 375 -142z m-436 -80 c17 -5 32 -13 32 -17 0 -13 -57 -69 -86
-84 -16 -8 -48 -18 -72 -22 l-44 -7 28 43 c15 24 35 52 43 62 13 15 12 17 -10
17 -18 0 -33 -13 -59 -55 -19 -30 -38 -55 -42 -55 -4 0 -15 11 -24 25 -52 80
90 137 234 93z m260 10 c18 -18 15 -46 -8 -83 -21 -34 -47 -48 -115 -64 -39
-9 -39 -9 -8 -10 47 -1 68 -36 54 -89 -20 -71 -78 -122 -141 -124 -87 -3 -77
90 14 134 40 19 40 19 9 14 -18 -3 -33 -3 -33 0 0 11 103 154 111 154 4 0 11
-4 14 -10 3 -5 11 -10 17 -10 6 0 3 9 -6 19 -21 23 -15 36 28 62 36 22 48 23
64 7z m-180 -121 c-130 -194 -187 -261 -206 -243 -3 4 43 78 102 166 96 141
111 158 127 149 18 -9 17 -14 -23 -72z m662 -61 c0 -16 -61 -102 -92 -128 -26
-23 -48 -23 -48 0 0 24 52 106 81 126 29 20 59 21 59 2z m570 1 c0 -16 -47
-61 -72 -70 -27 -9 -22 8 13 48 31 35 59 46 59 22z m500 0 c0 -15 -34 -49 -67
-66 -32 -17 -29 2 8 44 32 36 59 46 59 22z"/>
<path d="M2027 643 c-11 -10 -8 -41 3 -48 15 -9 40 14 40 36 0 19 -29 27 -43
12z"/>
<path d="M166 297 c-86 -132 -155 -241 -153 -244 3 -2 60 5 128 16 424 67 726
115 881 139 l176 28 566 -112 c312 -62 576 -114 588 -116 18 -3 43 30 158 207
76 116 136 212 134 213 -1 2 -14 -2 -28 -10 -16 -8 -72 -85 -142 -193 -64 -99
-117 -181 -118 -182 -1 -1 -20 2 -41 7 -22 6 -282 58 -579 116 l-539 106 -136
-22 c-505 -81 -949 -150 -963 -150 -13 0 4 33 66 128 199 306 196 300 177 305
-14 3 -52 -48 -175 -236z"/>
<path d="M2443 25 c0 -8 4 -12 9 -9 5 3 6 10 3 15 -9 13 -12 11 -12 -6z"/>
</g>
</svg>
